<?xml version="1.0" encoding="utf-8"?>
<!-- Generator: Adobe Illustrator 25.3.1, SVG Export Plug-In . SVG Version: 6.00 Build 0)  -->
<svg version="1.1" id="Layer_1" xmlns="http://www.w3.org/2000/svg" xmlns:xlink="http://www.w3.org/1999/xlink" x="0px" y="0px"
	 viewBox="0 0 100 100" style="enable-background:new 0 0 100 100;" xml:space="preserve">
<g>
	<path d="M58.9,42.5c-4.3,0-6.2,2.4-7.3,4V43h-8.1c0.1,2.3,0,24.3,0,24.3h8.1V53.7c0-0.7,0.1-1.5,0.3-2c0.6-1.5,1.9-3,4.1-3
		c2.9,0,4.1,2.2,4.1,5.5v13h8.1h0V53.4C68.2,45.9,64.2,42.5,58.9,42.5z M51.6,46.5L51.6,46.5C51.6,46.5,51.6,46.5,51.6,46.5
		L51.6,46.5z"/>
	<rect x="31" y="43" width="8.1" height="24.3"/>
	<path d="M49.8-0.4c-27.6,0-50,22.4-50,50s22.4,50,50,50s50-22.4,50-50S77.4-0.4,49.8-0.4z M76.3,72.2c0,2.1-1.8,3.8-3.9,3.8H26.9
		c-2.2,0-3.9-1.7-3.9-3.8v-46c0-2.1,1.8-3.8,3.9-3.8h45.5c2.2,0,3.9,1.7,3.9,3.8V72.2z"/>
	<ellipse transform="matrix(0.9871 -0.1602 0.1602 0.9871 -5.1677 6.0336)" cx="34.8" cy="35.1" rx="4.7" ry="4.7"/>
</g>
</svg>
