<?xml version="1.0" encoding="utf-8"?>
<!-- Generator: Adobe Illustrator 25.3.1, SVG Export Plug-In . SVG Version: 6.00 Build 0)  -->
<svg version="1.1" id="Layer_1" xmlns="http://www.w3.org/2000/svg" xmlns:xlink="http://www.w3.org/1999/xlink" x="0px" y="0px"
	 viewBox="0 0 100 100" style="enable-background:new 0 0 100 100;" xml:space="preserve">
<path d="M50.3,0.3c-27.6,0-50,22.4-50,50s22.4,50,50,50s50-22.4,50-50S77.9,0.3,50.3,0.3z M75.4,40.8c0,0.5,0,1,0,1.6
	c0,15.9-12.1,34.3-34.3,34.3c-6.8,0-13.1-2-18.5-5.4c0.9,0.1,1.9,0.2,2.9,0.2c5.6,0,10.8-1.9,15-5.2c-5.3-0.1-9.7-3.6-11.3-8.4
	c0.7,0.1,1.5,0.2,2.3,0.2c1.1,0,2.2-0.1,3.2-0.4c-5.5-1.1-9.7-6-9.7-11.8c0-0.1,0-0.1,0-0.2c1.6,0.9,3.5,1.4,5.5,1.5
	c-3.2-2.2-5.4-5.9-5.4-10c0-2.2,0.6-4.3,1.6-6.1c5.9,7.3,14.8,12.1,24.8,12.6c-0.2-0.9-0.3-1.8-0.3-2.7c0-6.7,5.4-12.1,12.1-12.1
	c3.5,0,6.6,1.5,8.8,3.8c2.7-0.5,5.3-1.5,7.7-2.9c-0.9,2.8-2.8,5.2-5.3,6.7c2.4-0.3,4.8-0.9,6.9-1.9C79.8,37,77.8,39.1,75.4,40.8z"/>
</svg>
