<?xml version="1.0" encoding="utf-8"?>
<!-- Generator: Adobe Illustrator 25.3.1, SVG Export Plug-In . SVG Version: 6.00 Build 0)  -->
<svg version="1.1" id="Layer_1" xmlns="http://www.w3.org/2000/svg" xmlns:xlink="http://www.w3.org/1999/xlink" x="0px" y="0px"
	 viewBox="0 0 100 100" style="enable-background:new 0 0 100 100;" xml:space="preserve">
<g>
	<circle cx="50" cy="50" r="9.7"/>
	<path d="M72.6,32.9c-0.5-1.4-1.2-2.3-2.2-3.3c-1-1-2-1.6-3.3-2.2c-1-0.4-2.6-0.9-5.4-1c-3.1-0.1-4-0.2-11.7-0.2s-8.7,0-11.7,0.2
		c-2.8,0.1-4.4,0.6-5.4,1c-1.4,0.5-2.3,1.2-3.3,2.2c-1,1-1.6,2-2.2,3.3c-0.4,1-0.9,2.6-1,5.4c-0.1,3.1-0.2,4-0.2,11.7
		s0,8.7,0.2,11.7c0.1,2.8,0.6,4.4,1,5.4c0.5,1.4,1.2,2.3,2.2,3.3s2,1.6,3.3,2.2c1,0.4,2.6,0.9,5.4,1c3.1,0.1,4,0.2,11.7,0.2
		s8.7,0,11.7-0.2c2.8-0.1,4.4-0.6,5.4-1c1.4-0.5,2.3-1.2,3.3-2.2c1-1,1.6-2,2.2-3.3c0.4-1,0.9-2.6,1-5.4c0.1-3.1,0.2-4,0.2-11.7
		s0-8.7-0.2-11.7C73.5,35.5,73,33.9,72.6,32.9z M50,64.9c-8.2,0-14.9-6.7-14.9-14.9c0-8.2,6.7-14.9,14.9-14.9S64.9,41.8,64.9,50
		C64.9,58.2,58.2,64.9,50,64.9z M65.5,38c-1.9,0-3.5-1.6-3.5-3.5s1.6-3.5,3.5-3.5s3.5,1.6,3.5,3.5S67.4,38,65.5,38z"/>
	<path d="M50,0C22.4,0,0,22.4,0,50c0,27.6,22.4,50,50,50c27.6,0,50-22.4,50-50C100,22.4,77.6,0,50,0z M78.8,62
		c-0.1,3.1-0.6,5.2-1.3,7c-0.7,1.9-1.7,3.5-3.3,5.1c-1.6,1.6-3.2,2.6-5.1,3.3c-1.8,0.7-4,1.2-7,1.3C58.9,79,57.9,79,50,79
		s-8.9,0-12-0.2c-3.1-0.1-5.2-0.6-7-1.3c-1.9-0.7-3.5-1.7-5.1-3.3c-1.6-1.6-2.6-3.2-3.3-5.1c-0.7-1.8-1.2-4-1.3-7
		C21,58.9,21,57.9,21,50c0-7.9,0-8.9,0.2-12c0.1-3.1,0.6-5.2,1.3-7c0.7-1.9,1.7-3.5,3.3-5.1c1.6-1.6,3.2-2.6,5.1-3.3
		c1.8-0.7,4-1.2,7-1.3C41.1,21,42.1,21,50,21s8.9,0,12,0.2c3.1,0.1,5.2,0.6,7,1.3c1.9,0.7,3.5,1.7,5.1,3.3c1.6,1.6,2.6,3.2,3.3,5.1
		c0.7,1.8,1.2,4,1.3,7C79,41.1,79,42.1,79,50C79,57.9,79,58.9,78.8,62z"/>
</g>
</svg>
