<?xml version="1.0" encoding="utf-8"?>
<!-- Generator: Adobe Illustrator 25.3.1, SVG Export Plug-In . SVG Version: 6.00 Build 0)  -->
<svg version="1.1" id="Layer_1" xmlns="http://www.w3.org/2000/svg" xmlns:xlink="http://www.w3.org/1999/xlink" x="0px" y="0px"
	 viewBox="0 0 100 100" style="enable-background:new 0 0 100 100;" xml:space="preserve">
<g>
	<path d="M50,0C22.4,0,0,22.4,0,50c0,27.6,22.4,50,50,50c27.6,0,50-22.4,50-50C100,22.4,77.6,0,50,0z M78.7,64.5
		c-0.7,2.6-2.7,4.6-5.3,5.3C68.8,71.1,50,71.1,50,71.1s-18.8,0-23.4-1.3c-2.6-0.7-4.6-2.7-5.3-5.3C20,59.8,20,50,20,50
		s0-9.8,1.3-14.5c0.7-2.6,2.7-4.6,5.3-5.3c4.7-1.3,23.4-1.3,23.4-1.3s18.8,0,23.4,1.3c2.6,0.7,4.6,2.7,5.3,5.3C80,40.2,80,50,80,50
		S80,59.8,78.7,64.5z"/>
	<polygon points="43.9,58.9 59.5,50 43.9,41.1 	"/>
</g>
</svg>
