<?xml version="1.0" encoding="utf-8"?>
<!-- Generator: Adobe Illustrator 25.3.1, SVG Export Plug-In . SVG Version: 6.00 Build 0)  -->
<svg version="1.1" id="Layer_1" xmlns="http://www.w3.org/2000/svg" xmlns:xlink="http://www.w3.org/1999/xlink" x="0px" y="0px"
	 viewBox="0 0 100 100" style="enable-background:new 0 0 100 100;" xml:space="preserve">
<g>
	<path d="M50,0C22.4,0,0,22.4,0,50c0,27.6,22.4,50,50,50c27.6,0,50-22.4,50-50C100,22.4,77.6,0,50,0z M77.5,66.5
		c0,3-2.5,5.5-5.5,5.5H28c-3,0-5.5-2.5-5.5-5.5l0-33c0-3,2.4-5.5,5.5-5.5h44c3,0,5.5,2.5,5.5,5.5V66.5z"/>
	<polygon points="28,33.5 28,39 50,52.8 72,39 72,33.5 50,47.2 	"/>
</g>
</svg>
