<?xml version="1.0" encoding="utf-8"?>
<!-- Generator: Adobe Illustrator 25.3.1, SVG Export Plug-In . SVG Version: 6.00 Build 0)  -->
<svg version="1.1" id="Layer_1" xmlns="http://www.w3.org/2000/svg" xmlns:xlink="http://www.w3.org/1999/xlink" x="0px" y="0px"
	 viewBox="0 0 788 788" style="enable-background:new 0 0 788 788;" xml:space="preserve">
<style type="text/css">
	.st0{fill:none;}
	.st1{fill:#4788EB;}
</style>
<rect x="2" y="2" class="st0" width="784" height="784"/>
<g>
	<path class="st1" d="M180.09,306.98l-13.3-26.82h-15v26.82H137v-74.49h34.59c3.47,0,6.78,0.48,9.89,1.43
		c3.12,0.96,5.86,2.43,8.19,4.42c2.34,1.98,4.19,4.46,5.54,7.4c1.35,2.94,2.02,6.4,2.02,10.37c0,5.61-1.19,10.2-3.56,13.78
		c-2.37,3.58-5.94,6.3-10.69,8.14l14.26,28.95H180.09z M181.89,256.49c0-3.38-0.94-5.8-2.82-7.25c-1.88-1.44-4.49-2.17-7.82-2.17
		h-19.48v19.05h19.48C178.35,266.11,181.89,262.91,181.89,256.49z"/>
	<path class="st1" d="M256.07,279.1c0,1.06-0.02,1.97-0.05,2.71c-0.04,0.74-0.09,1.4-0.16,1.97h-33.42c0.14,1.91,0.57,3.54,1.28,4.9
		c0.71,1.35,1.59,2.43,2.66,3.24c1.06,0.82,2.25,1.42,3.56,1.81c1.31,0.39,2.64,0.58,4,0.58c2.05,0,3.91-0.35,5.54-1.06
		c1.63-0.71,2.98-1.66,4.05-2.87l10.43,8.72c-2.27,2.91-5.24,5.15-8.88,6.71c-3.66,1.56-7.36,2.34-11.13,2.34
		c-4.05,0-7.68-0.69-10.91-2.07c-3.22-1.38-5.98-3.33-8.25-5.86c-2.27-2.51-4.03-5.57-5.27-9.15c-1.24-3.58-1.86-7.57-1.86-11.98
		c0-4.26,0.64-8.18,1.91-11.76c1.28-3.58,3.03-6.67,5.27-9.26c2.23-2.59,4.86-4.6,7.87-6.01c3.01-1.42,6.3-2.13,9.84-2.13
		c3.69,0,7.01,0.76,9.95,2.28c2.94,1.52,5.41,3.61,7.4,6.28c1.98,2.66,3.51,5.77,4.58,9.31
		C255.53,271.37,256.07,275.13,256.07,279.1z M240.95,269.05c-0.43-1.17-1.05-2.23-1.86-3.19c-0.82-0.96-1.83-1.72-3.03-2.29
		c-1.21-0.57-2.62-0.85-4.26-0.85c-2.69,0-4.83,0.96-6.39,2.87c-1.56,1.91-2.48,4.3-2.76,7.13h19.16
		C241.66,271.44,241.38,270.22,240.95,269.05z"/>
	<path class="st1" d="M309.55,300.7c-1.52,1.49-3.19,2.8-5.01,3.94c-1.81,1.13-3.84,2-6.07,2.6c-2.23,0.6-4.74,0.9-7.5,0.9
		c-3.61,0-7.02-0.71-10.2-2.13c-3.18-1.42-5.96-3.4-8.31-5.96c-2.36-2.55-4.21-5.62-5.55-9.2c-1.34-3.58-2-7.5-2-11.76
		c0-4.26,0.67-8.18,2-11.76c1.34-3.58,3.18-6.67,5.55-9.26c2.36-2.59,5.17-4.6,8.42-6.01c3.25-1.42,6.83-2.13,10.73-2.13
		c5.32,0,9.75,1.15,13.3,3.45c3.54,2.3,6.49,5.27,8.83,8.88l-9.68,9.79c-1.63-2.34-3.42-4.26-5.38-5.75s-4.42-2.23-7.4-2.23
		c-3.54,0-6.37,1.35-8.46,4.05c-2.09,2.69-3.14,6.35-3.14,10.97c0,4.47,1.04,8.07,3.14,10.8c2.09,2.73,4.92,4.1,8.46,4.1
		c2.9,0,5.36-0.62,7.34-1.86c1.98-1.24,3.94-2.99,5.86-5.27l9.36,8.83C312.51,297.55,311.07,299.22,309.55,300.7z"/>
	<path class="st1" d="M341.2,238.12c0,2.27-0.83,4.24-2.5,5.91c-1.67,1.67-3.64,2.5-5.91,2.5s-4.24-0.83-5.91-2.5
		c-1.67-1.66-2.5-3.64-2.5-5.91c0-2.27,0.83-4.24,2.5-5.91c1.66-1.66,3.64-2.5,5.91-2.5s4.24,0.83,5.91,2.5
		C340.37,233.89,341.2,235.86,341.2,238.12z M325.46,306.98v-55.87h14.79v55.87H325.46z"/>
	<path class="st1" d="M403.15,279.74c0,4.19-0.48,8.02-1.43,11.5c-0.95,3.47-2.35,6.48-4.19,8.99c-1.84,2.52-4.11,4.47-6.79,5.86
		c-2.68,1.38-5.77,2.07-9.23,2.07c-2.47,0-4.72-0.42-6.74-1.28c-2.01-0.85-3.7-1.88-5.04-3.08v16.39l-14.79,7.34v-76.42h14.79
		l-0.11,3.51c1.42-1.2,3.06-2.29,4.95-3.24c1.88-0.96,4.17-1.43,6.86-1.43c2.98,0,5.78,0.57,8.41,1.7c2.62,1.13,4.93,2.92,6.92,5.38
		c1.98,2.44,3.54,5.55,4.69,9.31C402.58,270.09,403.15,274.56,403.15,279.74z M388.35,280.06c0-5.75-0.87-9.89-2.6-12.45
		c-1.74-2.55-4.07-3.84-6.97-3.84c-2.27,0-4.09,0.42-5.43,1.28c-1.35,0.85-2.55,1.98-3.61,3.4v21.07c2.34,3.19,5.64,4.79,9.89,4.79
		C385.44,294.32,388.35,289.57,388.35,280.06z"/>
	<path class="st1" d="M447.52,268.25c-1.21-1.09-2.52-1.99-3.94-2.68c-1.42-0.69-2.94-1.04-4.58-1.04c-1.42,0-2.71,0.18-3.89,0.53
		c-1.17,0.36-2.16,0.99-2.98,1.92c-0.82,0.92-1.45,2.17-1.91,3.74s-0.69,3.55-0.69,5.97v30.3h-14.79v-55.91h14.79v3.73
		c1.27-1.33,2.85-2.48,4.74-3.43c1.88-0.95,4.14-1.42,6.76-1.42c2.41,0,4.49,0.41,6.23,1.22c1.74,0.82,3.1,1.72,4.1,2.71
		L447.52,268.25z"/>
	<path class="st1" d="M507.97,279.1c0,4.26-0.64,8.18-1.91,11.76c-1.28,3.58-3.03,6.65-5.27,9.2c-2.23,2.55-4.92,4.54-8.03,5.96
		c-3.12,1.42-6.49,2.13-10.11,2.13s-6.97-0.71-10.05-2.13c-3.08-1.42-5.75-3.4-7.98-5.96c-2.23-2.55-4-5.62-5.27-9.2
		c-1.28-3.58-1.91-7.5-1.91-11.76c0-4.26,0.64-8.18,1.91-11.76c1.28-3.58,3.03-6.67,5.27-9.26c2.23-2.59,4.9-4.6,7.98-6.01
		c3.08-1.42,6.44-2.13,10.05-2.13s6.99,0.71,10.11,2.13c3.12,1.42,5.8,3.42,8.03,6.01c2.23,2.59,4,5.68,5.27,9.26
		C507.33,270.93,507.97,274.85,507.97,279.1z M493.18,279.1c0-4.26-0.86-7.82-2.58-10.69s-4.38-4.31-7.95-4.31
		c-3.58,0-6.22,1.42-7.9,4.26c-1.68,2.83-2.52,6.42-2.52,10.74s0.84,7.89,2.52,10.69s4.32,4.21,7.9,4.21c1.79,0,3.34-0.41,4.68-1.22
		c1.32-0.81,2.41-1.91,3.27-3.29c0.86-1.38,1.5-2.98,1.93-4.79C492.96,282.88,493.18,281.01,493.18,279.1z"/>
	<path class="st1" d="M561.13,300.7c-1.52,1.49-3.19,2.8-5.01,3.94c-1.81,1.13-3.84,2-6.07,2.6c-2.23,0.6-4.74,0.9-7.5,0.9
		c-3.61,0-7.02-0.71-10.2-2.13c-3.18-1.42-5.96-3.4-8.31-5.96c-2.36-2.55-4.21-5.62-5.55-9.2c-1.34-3.58-2-7.5-2-11.76
		c0-4.26,0.67-8.18,2-11.76c1.34-3.58,3.18-6.67,5.55-9.26c2.36-2.59,5.17-4.6,8.42-6.01c3.25-1.42,6.83-2.13,10.73-2.13
		c5.32,0,9.75,1.15,13.3,3.45c3.54,2.3,6.49,5.27,8.83,8.88l-9.68,9.79c-1.63-2.34-3.42-4.26-5.38-5.75s-4.42-2.23-7.4-2.23
		c-3.54,0-6.37,1.35-8.46,4.05c-2.09,2.69-3.14,6.35-3.14,10.97c0,4.47,1.04,8.07,3.14,10.8c2.09,2.73,4.92,4.1,8.46,4.1
		c2.9,0,5.36-0.62,7.34-1.86c1.98-1.24,3.94-2.99,5.86-5.27l9.36,8.83C564.09,297.55,562.65,299.22,561.13,300.7z"/>
	<path class="st1" d="M607.15,306.98l0.11-3.73c-1.35,1.42-3.12,2.59-5.32,3.51c-2.2,0.92-4.62,1.38-7.24,1.38s-5.18-0.41-7.66-1.22
		c-2.48-0.81-4.7-2.04-6.65-3.68s-3.53-3.69-4.74-6.17c-1.21-2.48-1.81-5.43-1.81-8.83c0-3.05,0.58-5.75,1.75-8.09
		c1.17-2.34,2.77-4.28,4.83-5.8c2.05-1.52,4.44-2.67,7.16-3.45c2.72-0.78,5.68-1.17,8.86-1.17c2.54,0,4.67,0.23,6.36,0.69
		c1.69,0.46,3.14,0.97,4.35,1.54v-2.76c0-1.98-0.66-3.68-1.97-5.06s-3.31-2.07-6.01-2.07c-1.7,0-3.21,0.07-4.53,0.21
		c-1.31,0.14-2.55,0.35-3.73,0.64c-1.17,0.28-2.32,0.66-3.45,1.12c-1.13,0.46-2.34,1.05-3.61,1.75l-5.64-10.21
		c1.63-0.92,3.21-1.73,4.74-2.44s3.12-1.29,4.79-1.75c1.66-0.46,3.42-0.81,5.27-1.06c1.84-0.25,3.91-0.37,6.17-0.37
		c3.4,0,6.5,0.42,9.28,1.28c2.78,0.85,5.17,2.11,7.17,3.78c2,1.67,3.55,3.73,4.67,6.17s1.66,5.24,1.66,8.35V307h-14.8V306.98z
		 M607.15,283.57c-1.26-0.78-2.61-1.36-4.06-1.75c-1.44-0.39-3.45-0.58-6.05-0.58c-2.73,0-4.83,0.6-6.26,1.81
		c-1.44,1.21-2.15,2.94-2.15,5.22c0,1.98,0.63,3.73,1.89,5.22c1.26,1.49,3.43,2.23,6.52,2.23c2.38,0,4.47-0.51,6.26-1.54
		c1.79-1.03,3.07-2.21,3.85-3.56L607.15,283.57L607.15,283.57z"/>
	<path class="st1" d="M636.21,306.98v-70.24L651,229.4v77.59h-14.79V306.98z"/>
</g>
<g>
	<path class="st1" d="M155.2,534.53H137v-45.81h18.85c7.99,0,13.16,4.19,13.16,11.91c0,4.65-2.48,7.52-5.82,9.16
		c3.6,0.98,7.73,4.32,7.73,10.67C170.91,529.75,165.2,534.53,155.2,534.53z M155.79,495h-12.3v11.84h12.3
		c4.52,0,6.35-2.82,6.35-5.82C162.13,497.62,160.37,495,155.79,495z M155.92,513.07h-12.43v15.18h12.23c6.08,0,8.31-3.08,8.31-7.59
		C164.03,515.94,161.09,513.07,155.92,513.07z"/>
	<path class="st1" d="M198.84,507.31c-1.44-0.78-2.95-1.24-5.17-1.24c-4.26,0-6.74,3.01-6.74,8.84v19.64h-6.74v-34.36h6.74v3.27
		c1.57-2.29,4.45-3.99,7.86-3.99c2.75,0,4.45,0.52,5.82,1.44L198.84,507.31z"/>
	<path class="st1" d="M224.96,534.53v-3.41c-2.35,2.35-5.69,4.13-9.43,4.13c-5.56,0-11.91-3.15-11.91-11.58
		c0-7.65,5.89-11.12,13.68-11.12c3.21,0,5.76,0.46,7.65,1.31v-2.55c0-3.73-2.29-5.82-6.48-5.82c-3.54,0-6.28,0.65-8.97,2.15
		l-2.62-5.1c3.28-2.02,6.93-3.08,11.78-3.08c7.65,0,12.9,3.73,12.9,11.52v23.56L224.96,534.53L224.96,534.53z M224.96,519.87
		c-1.83-0.91-4.19-1.5-7.86-1.5c-4.32,0-7.06,1.96-7.06,5.1c0,3.41,2.15,5.69,6.61,5.69c3.6,0,6.74-2.22,8.32-4.39v-4.9H224.96z"/>
	<path class="st1" d="M262.13,534.53v-19.44c0-6.93-2.62-9.43-7.07-9.43c-4.52,0-7.06,3.21-7.06,8.77v20.09h-6.74v-34.36H248v3.27
		c1.7-2.48,5.1-3.99,8.64-3.99c7.99,0,12.23,5.24,12.23,15.38v19.7h-6.73V534.53z"/>
	<path class="st1" d="M299.24,534.53v-3.28c-2.48,2.29-5.37,3.99-8.97,3.99c-7.39,0-13.22-5.37-13.22-18.46
		c0-11.78,6.41-17.34,13.55-17.34c3.47,0,6.74,1.83,8.64,3.93v-13.09l6.67-3.47v47.71H299.24z M299.31,510.18
		c-1.5-2.02-4.65-4.52-8.05-4.52c-4.84,0-7.46,3.67-7.46,10.93c0,8.64,2.75,12.43,7.73,12.43c3.21,0,6.02-2.15,7.79-4.39
		L299.31,510.18L299.31,510.18z"/>
	<path class="st1" d="M363.24,534.53l-3.6-4.26c-3.41,3.01-7.73,4.97-12.9,4.97c-9.75,0-14.4-5.04-14.4-12.43
		c0-6.22,3.28-9.95,9.62-13.55l-0.85-1.05c-3.08-3.67-4.32-6.28-4.32-9.69c0-6.61,4.91-10.54,12.69-10.54c4.26,0,8.31,1.5,12.3,4.32
		l-3.21,5.5c-3.54-2.55-6.15-3.47-9.69-3.47c-3.54,0-5.24,1.5-5.24,4.06c0,1.89,0.46,3.15,2.35,5.5l13.42,16.43
		c1.37-2.35,2.42-5.04,3.15-7.59l6.22,1.76c-0.98,3.73-2.62,7.65-4.97,11.06l7.26,8.97L363.24,534.53L363.24,534.53z M345.9,513.91
		c-4.32,2.42-6.67,4.84-6.67,8.58c0,3.67,2.48,6.48,7.79,6.48c3.41,0,6.28-1.37,8.58-3.54L345.9,513.91z"/>
	<path class="st1" d="M410.42,535.25c-6.67,0-12.43-2.88-16.29-7.39l4.91-4.78c3.08,3.34,7.59,5.43,11.91,5.43
		c6.41,0,9.49-2.22,9.49-6.67c0-3.54-2.69-5.3-10.34-7.59c-9.69-2.89-14.33-5.3-14.33-13.49c0-7.92,6.67-12.76,15.12-12.76
		c6.22,0,10.93,2.29,14.99,6.22l-4.84,4.91c-2.88-2.95-6.15-4.39-10.67-4.39c-5.36,0-7.65,2.62-7.65,5.69
		c0,3.21,2.09,4.78,10.01,7.13c9.03,2.75,14.66,5.63,14.66,13.81C427.37,529.62,422.13,535.25,410.42,535.25z"/>
	<path class="st1" d="M452.11,533.68c-1.63,0.91-3.93,1.57-6.61,1.57c-4.78,0-7.73-2.95-7.73-9.1v-19.83h-4.91v-6.15h4.91v-9.82
		l6.61-3.54v13.36h8.51v6.15h-8.51v18.65c0,3.21,1.05,4.13,3.54,4.13c1.76,0,3.73-0.65,4.98-1.37L452.11,533.68z"/>
	<path class="st1" d="M480.72,507.31c-1.44-0.78-2.95-1.24-5.17-1.24c-4.26,0-6.74,3.01-6.74,8.84v19.64h-6.74v-34.36h6.74v3.27
		c1.57-2.29,4.45-3.99,7.86-3.99c2.75,0,4.45,0.52,5.82,1.44L480.72,507.31z"/>
	<path class="st1" d="M506.83,534.53v-3.41c-2.35,2.35-5.69,4.13-9.43,4.13c-5.56,0-11.91-3.15-11.91-11.58
		c0-7.65,5.89-11.12,13.68-11.12c3.21,0,5.76,0.46,7.65,1.31v-2.55c0-3.73-2.29-5.82-6.48-5.82c-3.54,0-6.28,0.65-8.97,2.15
		l-2.62-5.1c3.28-2.02,6.93-3.08,11.78-3.08c7.65,0,12.9,3.73,12.9,11.52v23.56L506.83,534.53L506.83,534.53z M506.83,519.87
		c-1.83-0.91-4.19-1.5-7.86-1.5c-4.32,0-7.07,1.96-7.07,5.1c0,3.41,2.16,5.69,6.61,5.69c3.6,0,6.74-2.22,8.31-4.39v-4.9H506.83z"/>
	<path class="st1" d="M539.55,533.68c-1.63,0.91-3.93,1.57-6.61,1.57c-4.78,0-7.73-2.95-7.73-9.1v-19.83h-4.91v-6.15h4.91v-9.82
		l6.61-3.54v13.36h8.51v6.15h-8.51v18.65c0,3.21,1.05,4.13,3.54,4.13c1.76,0,3.73-0.65,4.98-1.37L539.55,533.68z"/>
	<path class="st1" d="M575.87,519.74h-22.71c0.72,6.61,4.45,9.43,8.64,9.43c2.89,0,5.17-1.05,7.46-2.75l3.99,4.32
		c-3.01,2.88-6.61,4.52-11.84,4.52c-8.05,0-14.86-6.48-14.86-17.86c0-11.65,6.15-17.93,15.05-17.93c9.75,0,14.47,7.92,14.47,17.21
		C576.07,517.91,575.94,519.02,575.87,519.74z M561.15,505.53c-4.52,0-7.26,3.15-7.86,8.64h15.97
		C568.94,509.46,566.72,505.53,561.15,505.53z"/>
	<path class="st1" d="M595.57,547.17l-2.29-5.1c9.69-0.46,11.78-3.08,11.78-10.21v-0.59c-2.48,2.29-5.3,3.99-8.9,3.99
		c-7.33,0-13.22-5.37-13.22-18.46c0-11.78,6.48-17.34,13.55-17.34c3.47,0,6.74,1.83,8.58,3.93v-3.21h6.74v31.09
		C611.8,541.74,608.01,546.77,595.57,547.17z M605.19,510.18c-1.5-2.02-4.65-4.52-8.05-4.52c-4.84,0-7.46,3.67-7.46,10.93
		c0,8.64,2.75,12.43,7.73,12.43c3.21,0,6.02-2.15,7.79-4.39V510.18z"/>
	<path class="st1" d="M633.73,546.63h-7.13l4.98-12.76l-12.63-33.7h7.39l5.63,16.82c1.05,3.01,2.62,8.12,3.01,10.01
		c0.59-2.03,2.03-6.93,3.08-9.88l5.82-16.95H651L633.73,546.63z"/>
</g>
</svg>
